# xmcd CD database file
#
# Track frame offsets:
#	150
#	29613
#	49757
#	102132
#	138368
#	198641
#
# Disc length: 3090 seconds
#
# Revision: 0
# Processed by: cddbd v1.5.2PL0 Copyright (c) Steve Scherf et al.
# Submitted via: CDex 1.51
#
DISCID=510c1006
DTITLE=Masada - Live At Stadtgarten - 6/16/94 Disc 2
DYEAR=1900
DGENRE=Jazz
TTITLE0=Rachab
TTITLE1=Zenan
TTITLE2=Bith Aneth
TTITLE3=Ziphim
TTITLE4=Abidan
TTITLE5=Tannaim
EXTD=
EXTT0=
EXTT1=
EXTT2=
EXTT3=
EXTT4=
EXTT5=
PLAYORDER=
